<?xml version="1.0" encoding="UTF-8" standalone="no"?>
<!-- Created with Inkscape (http://www.inkscape.org/) -->

<svg
   xmlns:dc="http://purl.org/dc/elements/1.1/"
   xmlns:cc="http://creativecommons.org/ns#"
   xmlns:rdf="http://www.w3.org/1999/02/22-rdf-syntax-ns#"
   xmlns:svg="http://www.w3.org/2000/svg"
   xmlns="http://www.w3.org/2000/svg"
   xmlns:sodipodi="http://sodipodi.sourceforge.net/DTD/sodipodi-0.dtd"
   xmlns:inkscape="http://www.inkscape.org/namespaces/inkscape"
   version="1.1"
   id="svg11465"
   width="794"
   height="401"
   viewBox="0 0 794 401"
   sodipodi:docname="vetransLogo.svg"
   inkscape:version="0.92.2 (5c3e80d, 2017-08-06)">
  <metadata
     id="metadata11471">
    <rdf:RDF>
      <cc:Work
         rdf:about="">
        <dc:format>image/svg+xml</dc:format>
        <dc:type
           rdf:resource="http://purl.org/dc/dcmitype/StillImage" />
        <dc:title></dc:title>
      </cc:Work>
    </rdf:RDF>
  </metadata>
  <defs
     id="defs11469" />
  <sodipodi:namedview
     pagecolor="#ffffff"
     bordercolor="#666666"
     borderopacity="1"
     objecttolerance="10"
     gridtolerance="10"
     guidetolerance="10"
     inkscape:pageopacity="0"
     inkscape:pageshadow="2"
     inkscape:window-width="1920"
     inkscape:window-height="1017"
     id="namedview11467"
     showgrid="false"
     inkscape:zoom="1"
     inkscape:cx="397"
     inkscape:cy="200.5"
     inkscape:window-x="-8"
     inkscape:window-y="-8"
     inkscape:window-maximized="1"
     inkscape:current-layer="svg11465" />
  <g
     id="g11487"
     transform="translate(24,4)">
    <path
       style="fill:#a85b5f"
       d="m 682.42305,391.64958 c -2.24233,-0.73501 -6.40483,-2.60338 -9.25,-4.15191 L 668,384.68214 v -12.9094 -12.9094 l 5.0741,4.81833 c 9.65977,9.17285 18.19926,11.54079 25.93676,7.19207 4.39743,-2.47149 5.98914,-5.38707 5.98914,-10.97045 0,-7.81891 -2.69215,-10.34234 -16.5,-15.46595 -3.23277,-1.19957 -7.00089,-3.84243 -10.6611,-7.47744 -6.50241,-6.45762 -8.5264,-11.59171 -9.51807,-24.14376 -1.70682,-21.60404 8.40515,-38.72967 24.30798,-41.16797 6.62613,-1.01595 17.35396,1.82388 22.64971,5.99575 2.69404,2.12231 2.72148,2.26597 2.72148,14.25 0,6.65834 -0.23875,12.10608 -0.53055,12.10608 -0.2918,0 -1.88685,-1.54474 -3.54455,-3.43275 C 710.12484,296.23922 701.72613,292 696.95154,292 c -11.16437,0 -17.22553,15.38444 -8.84081,22.43972 1.6735,1.40815 3.62103,2.56028 4.32785,2.56028 2.22911,0 15.96819,7.49768 18.64598,10.17547 4.53784,4.53784 7.05102,10.02901 8.59351,18.77635 1.25289,7.10508 1.30681,10.06755 0.3194,17.54818 -0.65339,4.95 -1.98016,10.82286 -2.94838,13.05081 -2.39594,5.51323 -7.52117,11.13713 -12.45441,13.66619 -5.09297,2.61096 -16.35651,3.33873 -22.17163,1.43258 z M 280.05854,335.28821 C 273.88859,304.05469 268.76385,277.825 268.67023,277 c -0.13253,-1.16781 1.24676,-1.56679 6.2282,-1.80157 3.73019,-0.17581 6.8578,0.15733 7.5,0.79888 1.10025,1.09913 2.65478,7.73625 4.685,20.00269 0.59169,3.575 1.68506,8.975 2.4297,12 0.74464,3.025 1.64789,7.975 2.00723,11 0.35933,3.025 1.1007,6.96718 1.64747,8.7604 0.54678,1.79323 1.53179,6.96823 2.18892,11.5 0.78783,5.43321 1.60792,8.15572 2.40779,7.99334 0.7135,-0.14485 1.47838,1.41321 1.85741,3.7835 0.35441,2.21637 0.8237,3.85044 1.04287,3.63127 0.40005,-0.40005 2.70723,-12.32768 10.28444,-53.16851 2.24491,-12.1 4.30828,-23.0125 4.58525,-24.25 0.45211,-2.01999 1.10249,-2.25 6.3621,-2.25 7.54172,0 8.25226,0.8721 7.13728,8.76021 -0.47957,3.3928 -1.10752,6.54991 -1.39545,7.01578 -0.28793,0.46588 -1.2247,4.86937 -2.08172,9.78553 -0.85703,4.91617 -2.05205,11.41348 -2.65562,14.43848 -3.25034,16.29032 -4.81682,24.09784 -5.91878,29.5 -0.67316,3.3 -1.81046,9.375 -2.52735,13.5 -2.27278,13.07771 -4.532,24.35364 -5.81037,29 l -1.23811,4.5 -8.06493,0.28821 -8.06493,0.28821 z M 342,333.51913 V 275 h 21.37756 c 17.09846,0 21.61001,0.28009 22.53885,1.39928 0.74951,0.90311 1.05888,4.71502 0.87245,10.75 L 386.5,296.5 l -14.14037,0.27679 c -13.65797,0.26734 -14.16071,0.35263 -14.73635,2.5 -0.86039,3.20958 -0.73007,15.00694 0.18161,16.44176 0.52746,0.83012 4.90561,1.30827 13.73469,1.5 L 384.5,317.5 l 0.2825,10.6185 0.2825,10.6185 -3.1575,0.6315 C 380.17087,339.71583 374.08125,340 368.375,340 H 358 v 14.5 14.5 h 12.80887 c 8.75043,0 13.35707,0.40085 14.53905,1.26513 1.4771,1.08009 1.68789,2.7256 1.44112,11.25 L 386.5,391.5 364.25,391.76913 342,392.03826 Z m 74,11.02293 V 297 h -10.03383 -10.03383 l 0.28383,-10.75 0.28383,-10.75 25.87689,-0.26714 c 18.61433,-0.19216 26.27191,0.0607 27.28439,0.90099 1.07069,0.8886 1.33945,3.46513 1.12311,10.76714 L 450.5,296.5 l -9.24023,0.2874 -9.24023,0.28739 -0.25977,47.21261 L 431.5,391.5 l -7.75,0.29206 -7.75,0.29207 z M 458.459,390.75 c -0.26303,-0.6875 -0.36141,-26.9 -0.21862,-58.25 l 0.25962,-57 16.84123,-0.27459 c 15.68852,-0.2558 17.14481,-0.12298 21.27667,1.94057 5.33793,2.66589 8.68345,6.82155 11.26201,13.98917 5.27491,14.66264 2.47643,35.89998 -6.10094,46.2993 -1.90845,2.31384 -3.12631,4.8031 -2.93546,6 0.27656,1.7345 5.42792,14.37653 10.71488,26.29555 0.79288,1.7875 2.06838,4.7125 2.83443,6.5 0.76605,1.7875 2.56605,5.60422 4,8.48159 1.43395,2.87738 2.60718,5.70618 2.60718,6.28622 0,0.68663 -3.38166,0.95475 -9.69159,0.7684 l -9.69158,-0.28621 -8.57227,-21 -8.57227,-21 H 478.48615 474.5 l -0.26989,21.25 -0.26989,21.25 h -7.51149 c -5.08748,0 -7.66583,-0.40339 -7.98973,-1.25 z m 30.28824,-65.19077 c 7.00549,-5.89473 7.0908,-24.05712 0.13589,-28.92854 -3.19064,-2.2348 -13.42388,-2.26986 -14.27614,-0.0489 -0.33385,0.86998 -0.60699,8.29498 -0.60699,16.5 V 328 h 5.92327 c 4.82088,0 6.46314,-0.45426 8.82397,-2.44077 z M 520.38297,390.25 c 0.28475,-0.9625 5.5025,-26.90058 11.595,-57.64017 6.09249,-30.7396 11.31639,-56.2771 11.60866,-56.75 0.29227,-0.47291 3.87985,-0.85983 7.97239,-0.85983 9.32769,0 10.98587,1.34082 11.95602,9.66777 0.37372,3.20773 1.28029,8.08223 2.0146,10.83223 0.73431,2.75 1.61651,7.025 1.96045,9.5 0.34395,2.475 1.2655,7.425 2.0479,11 3.06314,13.99632 6.41673,30.72578 8.51954,42.5 0.58937,3.3 1.68453,8.25 2.4337,11 0.74917,2.75 1.85948,8.32869 2.46734,12.39709 0.60787,4.0684 1.31328,7.73375 1.56758,8.14522 0.78111,1.26387 -2.3976,1.95769 -8.96909,1.95769 h -6.27936 l -2.23679,-12 -2.23679,-12 h -11.85505 -11.85506 l -1.04074,3.75 c -0.57241,2.0625 -1.52421,6.45 -2.11512,9.75 -2.09323,11.68988 -0.95722,10.5 -10.02459,10.5 -7.19565,0 -7.99348,-0.1854 -7.53059,-1.75 z m 40.22749,-45 c -0.28838,-0.9625 -1.91308,-9.4 -3.61046,-18.75 -4.04154,-22.26284 -3.97914,-22.08649 -5.65762,-15.98705 -0.75481,2.74288 -1.84349,8.13705 -2.41929,11.98705 -0.5758,3.85 -1.69405,9.21918 -2.485,11.9315 -0.79095,2.71233 -1.43809,6.64983 -1.43809,8.75 V 347 h 8.06739 c 7.2163,0 8.01207,-0.18462 7.54307,-1.75 z M 72.481407,389.60643 c -2.687176,-1.17088 -4.46412,-2.93148 -11.456137,-11.35079 -1.025134,-1.23439 -2.168689,-3.70939 -2.541234,-5.5 -1.136457,-5.46228 -7.796726,-21.84731 -8.546857,-21.02625 -0.387223,0.42384 -1.16925,3.47061 -1.737839,6.77061 -1.418792,8.23445 -2.670493,11.10738 -5.705874,13.09624 -2.341915,1.53448 -3.593322,1.58117 -12.794635,0.47739 -5.609357,-0.67289 -10.462588,-1.52723 -10.784957,-1.89854 -0.853344,-0.98287 0.805614,-55.60741 2.111783,-69.53474 2.442999,-26.04903 7.95548,-37.18073 21.584633,-43.58719 2.294433,-1.07851 13.108249,-5.18478 24.030703,-9.12504 23.529174,-8.48813 32.335917,-12.71858 35.716427,-17.15692 1.60656,-2.10928 3.59325,-7.63839 5.59324,-15.56637 1.70593,-6.76235 3.81148,-14.06912 4.679,-16.23727 2.31763,-5.79233 7.24423,-9.58254 15.62342,-12.01966 34.52341,-10.04128 38.33307,-12.19769 50.49312,-28.58103 4.06556,-5.47758 9.33095,-11.4092 13.47487,-15.17987 1.54256,-1.40363 5.1504,-2.85876 9.17651,-3.70114 3.649,-0.76347 9.33667,-2.60076 12.63926,-4.08288 3.30259,-1.48212 6.2609,-2.43857 6.57402,-2.12545 0.86115,0.86115 -7.41173,24.40773 -10.91468,31.06578 -3.98362,7.57165 -7.31027,9.98553 -19.34839,14.03957 -14.5559,4.90193 -16.51171,6.06983 -15.73925,9.39857 0.34697,1.4952 3.13307,7.44355 6.19132,13.21855 14.4087,27.20842 13.61661,25.13106 14.06018,36.87428 0.22076,5.84414 -0.16691,19.30376 -0.86147,29.91025 -0.69456,10.6065 -1.09032,19.45706 -0.87946,19.66791 0.21086,0.21086 5.55782,-4.29161 11.88213,-10.00548 30.25421,-27.33396 33.00148,-19.82276 16.45528,44.98977 C 207.59858,376.71917 207.80861,376 205.81326,376 204.81596,376 204,376.675 204,377.5 c 0,1.30471 -4.52413,1.49893 -34.75,1.4918 -45.19127,-0.0107 -56.68627,-1.28798 -57.71526,-6.41324 -0.22952,-1.14321 -0.95594,-5.22856 -1.61427,-9.07856 -2.91994,-17.0763 -9.4639,-36.94336 -13.786982,-41.85641 -2.850636,-3.23966 -9.375781,-5.89479 -15.604076,-6.34942 C 71.923725,314.66602 66.562455,317.55217 62.5,325 c -2.836604,5.20044 -2.996058,6.09912 -2.927617,16.5 0.105007,15.95798 3.731162,27.88273 10.713326,35.23116 5.605939,5.90002 12.042242,6.5265 18.281585,1.77945 4.633504,-3.52529 10.359972,-12.47363 11.224935,-17.5404 0.499161,-2.92397 1.272401,-4.47021 2.235451,-4.47021 2.55943,0 1.50674,6.84223 -2.279225,14.8144 -7.315319,15.40399 -17.781457,22.42517 -27.267048,18.29203 z M 138.27585,244.62016 c 1.56997,-1.45501 3.36821,-5.06716 4.62731,-9.29498 2.15611,-7.23982 4.90709,-10.74064 10.75854,-13.69104 4.54854,-2.29344 7.49509,-6.43163 7.13698,-10.02328 -0.42351,-4.24764 -4.5782,-5.16396 -16.74018,-3.69207 -16.69477,2.02045 -21.60302,6.67354 -21.3145,20.20642 0.16578,7.77549 1.88108,13.69804 4.94913,17.08819 2.32329,2.56721 7.48473,2.27788 10.58272,-0.59324 z M 596,333 v -58 h 8 c 9.24501,0 11.42727,1.33516 12.57585,7.69422 0.37807,2.09318 1.17817,4.70578 1.77801,5.80578 0.59983,1.1 1.62474,3.8 2.27758,6 1.63953,5.52509 8.24148,24.55987 9.36457,27 0.50629,1.1 1.40158,3.89367 1.98953,6.20815 0.73464,2.8919 1.49666,4.04404 2.43623,3.68349 0.91379,-0.35065 1.87351,0.90693 2.89378,3.79186 1.42898,4.04059 1.5316,2.2551 1.6055,-27.9335 L 639,275 h 5.37756 c 3.31903,0 5.81043,0.52159 6.50838,1.36257 0.81849,0.98622 1.05947,16.93704 0.87245,57.75 L 651.5,390.5 l -6.5,0.28462 -6.5,0.28463 -4.82648,-14.28463 C 631.01895,368.92808 624.95397,351.025 620.19578,337 l -8.65126,-25.5 -0.91233,4.5 c -0.50179,2.475 -1.09072,20.3625 -1.30873,39.75 L 608.92706,391 H 602.46353 596 Z m -336.96301,-78.76896 -2.41166,-1.95285 1.75008,-9.88909 c 2.28474,-12.91037 6.33573,-28.91252 8.30407,-32.80264 3.6179,-7.15023 6.65588,-8.8668 24.82052,-14.0245 30.81763,-8.75042 53.86588,-19.21075 107,-48.56137 51.84911,-28.64081 85.53227,-44.82517 109.08886,-52.415924 19.52013,-6.290061 45.69882,-9.260342 72.41114,-8.215894 40.80579,1.595501 66.68704,10.187607 103.19214,34.257918 12.3749,8.15962 15.999,11.31737 19.14001,16.67712 2.4606,4.19868 2.46963,4.30952 1.72821,21.20846 -0.6374,14.52828 -1.07661,17.72905 -3.03362,22.1081 l -2.28831,5.12038 -8.32895,-4.43075 c -4.58092,-2.43692 -14.47294,-8.2135 -21.98226,-12.83686 -24.29216,-14.95625 -42.72653,-22.61137 -62.92963,-26.13238 -13.16755,-2.29484 -47.3978,-2.28067 -66.3128,0.0275 -41.8659,5.10875 -65.82905,14.78167 -147.68479,59.61419 -54.41889,29.80531 -76.27918,39.71603 -107.13861,48.57307 -20.36845,5.84599 -22.29815,6.12607 -25.3244,3.67556 z M 245.56711,171.67688 C 241.61235,166.49191 231,138.56899 231,133.34828 c 0,-3.12218 6.85828,-7.38732 24.44124,-15.1999 17.86442,-7.93764 17.85262,-7.9438 14.76411,7.70985 -4.21355,21.35571 -10.45319,41.64455 -14.31873,46.55878 -2.97194,3.7782 -7.09897,3.48221 -10.31951,-0.74013 z m 33.75551,2.62374 c -3.82254,-0.73855 -4.22318,-2.25715 -2.84943,-10.80062 1.82039,-11.32112 7.2058,-32.98588 9.47454,-38.11474 2.41028,-5.44884 6.34559,-7.89044 16.04259,-9.95338 13.80931,-2.93779 22.06413,-5.4291 35.33519,-10.66417 C 355.44326,97.620756 397.56706,76.454324 433.5,56.441814 467.00975,37.778878 483.26533,29.714523 503.65018,21.640482 529.19562,11.52243 549.63735,6.2977527 574.15154,3.6211195 c 6.95835,-0.7597618 13.15264,-1.6910784 13.76509,-2.0695925 0.61245,-0.3785142 3.46925,-0.2247344 6.34846,0.3417327 2.8792,0.5664672 10.18491,1.5522922 16.23491,2.1907222 28.67931,3.0264016 56.6082,13.5195401 86.66284,32.5600201 14.22109,9.009471 23.20282,16.972313 24.99289,22.157714 0.7048,2.041607 1.21312,7.505928 1.13476,12.198284 -0.13652,8.175114 -3.57673,35.61958 -4.59228,36.63512 -0.27125,0.27125 -6.45648,-3.82105 -13.74495,-9.094002 C 669.77777,73.092902 644.88258,62.892133 607.19079,58.483088 555.62143,52.450696 510.95219,65.402124 429.5,110.00287 367.26782,144.07932 320.06863,165.997 296.08301,171.95712 c -9.03792,2.24581 -13.81147,2.91326 -16.76039,2.3435 z"
       id="path11495"
       inkscape:connector-curvature="0" />
    <path
       style="fill:#56588e"
       d="m 682.42305,391.64958 c -2.24233,-0.73501 -6.40483,-2.60338 -9.25,-4.15191 L 668,384.68214 v -12.9094 -12.9094 l 5.0741,4.81833 c 9.65977,9.17285 18.19926,11.54079 25.93676,7.19207 4.39743,-2.47149 5.98914,-5.38707 5.98914,-10.97045 0,-7.81891 -2.69215,-10.34234 -16.5,-15.46595 -3.23277,-1.19957 -7.00089,-3.84243 -10.6611,-7.47744 -6.50241,-6.45762 -8.5264,-11.59171 -9.51807,-24.14376 -1.70682,-21.60404 8.40515,-38.72967 24.30798,-41.16797 6.62613,-1.01595 17.35396,1.82388 22.64971,5.99575 2.69404,2.12231 2.72148,2.26597 2.72148,14.25 0,6.65834 -0.23875,12.10608 -0.53055,12.10608 -0.2918,0 -1.88685,-1.54474 -3.54455,-3.43275 C 710.12484,296.23922 701.72613,292 696.95154,292 c -11.16437,0 -17.22553,15.38444 -8.84081,22.43972 1.6735,1.40815 3.62103,2.56028 4.32785,2.56028 2.22911,0 15.96819,7.49768 18.64598,10.17547 4.53784,4.53784 7.05102,10.02901 8.59351,18.77635 1.25289,7.10508 1.30681,10.06755 0.3194,17.54818 -0.65339,4.95 -1.98016,10.82286 -2.94838,13.05081 -2.39594,5.51323 -7.52117,11.13713 -12.45441,13.66619 -5.09297,2.61096 -16.35651,3.33873 -22.17163,1.43258 z M 458.459,390.75 c -0.26303,-0.6875 -0.36141,-26.9 -0.21862,-58.25 l 0.25962,-57 16.84123,-0.27459 c 15.68852,-0.2558 17.14481,-0.12298 21.27667,1.94057 5.33793,2.66589 8.68345,6.82155 11.26201,13.98917 5.27491,14.66264 2.47643,35.89998 -6.10094,46.2993 -1.90845,2.31384 -3.12631,4.8031 -2.93546,6 0.27656,1.7345 5.42792,14.37653 10.71488,26.29555 0.79288,1.7875 2.06838,4.7125 2.83443,6.5 0.76605,1.7875 2.56605,5.60422 4,8.48159 1.43395,2.87738 2.60718,5.70618 2.60718,6.28622 0,0.68663 -3.38166,0.95475 -9.69159,0.7684 l -9.69158,-0.28621 -8.57227,-21 -8.57227,-21 H 478.48615 474.5 l -0.26989,21.25 -0.26989,21.25 h -7.51149 c -5.08748,0 -7.66583,-0.40339 -7.98973,-1.25 z m 30.28824,-65.19077 c 7.00549,-5.89473 7.0908,-24.05712 0.13589,-28.92854 -3.19064,-2.2348 -13.42388,-2.26986 -14.27614,-0.0489 -0.33385,0.86998 -0.60699,8.29498 -0.60699,16.5 V 328 h 5.92327 c 4.82088,0 6.46314,-0.45426 8.82397,-2.44077 z M 520.38297,390.25 c 0.28475,-0.9625 5.5025,-26.90058 11.595,-57.64017 6.09249,-30.7396 11.31639,-56.2771 11.60866,-56.75 0.29227,-0.47291 3.87985,-0.85983 7.97239,-0.85983 9.32769,0 10.98587,1.34082 11.95602,9.66777 0.37372,3.20773 1.28029,8.08223 2.0146,10.83223 0.73431,2.75 1.61651,7.025 1.96045,9.5 0.34395,2.475 1.2655,7.425 2.0479,11 3.06314,13.99632 6.41673,30.72578 8.51954,42.5 0.58937,3.3 1.68453,8.25 2.4337,11 0.74917,2.75 1.85948,8.32869 2.46734,12.39709 0.60787,4.0684 1.31328,7.73375 1.56758,8.14522 0.78111,1.26387 -2.3976,1.95769 -8.96909,1.95769 h -6.27936 l -2.23679,-12 -2.23679,-12 h -11.85505 -11.85506 l -1.04074,3.75 c -0.57241,2.0625 -1.52421,6.45 -2.11512,9.75 -2.09323,11.68988 -0.95722,10.5 -10.02459,10.5 -7.19565,0 -7.99348,-0.1854 -7.53059,-1.75 z m 40.22749,-45 c -0.28838,-0.9625 -1.91308,-9.4 -3.61046,-18.75 -4.04154,-22.26284 -3.97914,-22.08649 -5.65762,-15.98705 -0.75481,2.74288 -1.84349,8.13705 -2.41929,11.98705 -0.5758,3.85 -1.69405,9.21918 -2.485,11.9315 -0.79095,2.71233 -1.43809,6.64983 -1.43809,8.75 V 347 h 8.06739 c 7.2163,0 8.01207,-0.18462 7.54307,-1.75 z M 73.655189,389.51753 c -4.613457,-1.61634 -8.066424,-4.68191 -9.690839,-8.6036 -0.658054,-1.58868 -1.603667,-2.63684 -2.101362,-2.32925 C 60.755645,379.26905 58,372.94779 58,369.72325 c 0,-1.28755 -0.660688,-3.2145 -1.468197,-4.28212 -0.807508,-1.06762 -1.482508,-2.47434 -1.5,-3.12603 -0.01749,-0.6517 -0.513438,-2.4517 -1.102102,-4 -0.588664,-1.54831 -1.08304,-3.0401 -1.098612,-3.3151 -0.06999,-1.23602 -1.985731,-4 -2.772435,-4 -0.479038,0 -1.223562,2.3625 -1.654497,5.25 -0.972934,6.51917 -0.757988,5.57442 -2.27689,10.00768 -2.056391,6.00203 -5.233897,6.853 -19.627267,5.25634 -6.550951,-0.7267 -7.552734,-1.26209 -7.699611,-4.11494 -0.158641,-3.08134 1.329949,-53.22524 1.729876,-58.27176 0.450937,-5.69018 1.812818,-19.4441 1.99296,-20.12732 0.07251,-0.275 0.526645,-2.3 1.009193,-4.5 0.482549,-2.2 0.928957,-4.225 0.992019,-4.5 1.077329,-4.698 2.799078,-9.0236 3.98274,-10.00596 0.821053,-0.68141 1.520171,-1.74633 1.553595,-2.36648 0.03343,-0.62016 2.059805,-2.70256 4.503067,-4.62756 2.443261,-1.925 5.083771,-4.0625 5.867799,-4.75 0.784028,-0.6875 1.72714,-1.25 2.095804,-1.25 0.368665,0 2.088308,-0.6318 3.821429,-1.404 2.963927,-1.32058 4.917576,-2.02422 18.651129,-6.71746 3.025,-1.03375 6.4,-2.28287 7.5,-2.77581 1.1,-0.49294 4.840442,-1.87707 8.312093,-3.07585 11.477374,-3.9632 20.418677,-9.34762 22.884667,-13.78108 1.21933,-2.19218 2.43832,-5.05678 2.70884,-6.36579 0.43246,-2.09255 1.16252,-5.20766 1.96395,-8.38001 0.13894,-0.55 0.54497,-1.9 0.90227,-3 0.35731,-1.1 0.85644,-3.20401 1.1092,-4.67557 1.62279,-9.44814 8.71056,-17.91483 16.16174,-19.30599 C 127.61924,187.31746 128.5,187.08416 128.5,187 c 0,-0.0842 0.675,-0.2915 1.5,-0.46076 0.825,-0.16925 3.525,-0.85746 6,-1.52935 2.475,-0.67189 4.5,-1.12093 4.5,-0.99788 0,0.12306 1.6875,-0.48134 3.75,-1.34311 2.0625,-0.86176 3.75,-1.30971 3.75,-0.99543 0,0.31428 0.74416,-0.0462 1.65369,-0.80103 0.90954,-0.75484 1.69704,-1.23089 1.75,-1.05789 0.1371,0.44776 3.41265,-0.73888 8.34113,-3.02175 4.17575,-1.93421 14.3164,-11.14269 17.25518,-15.66903 0.825,-1.27067 2.175,-3.1468 3,-4.16917 0.825,-1.02237 2.175,-2.71334 3,-3.7577 7.32019,-9.26659 11.19713,-11.99528 19.51587,-13.73579 3.54063,-0.74079 8.5855,-2.33921 11.21082,-3.55203 7.09755,-3.27886 7.14151,-3.26869 6.09047,1.40919 -0.50704,2.25664 -1.40342,4.68321 -1.99197,5.39236 C 217.23665,143.41978 217.09031,144 217.5,144 c 0.40969,0 0.18469,0.675 -0.5,1.5 -0.68469,0.825 -0.90969,1.5 -0.5,1.5 0.40969,0 0.29843,0.5625 -0.24723,1.25 -0.54567,0.6875 -1.56261,3.05 -2.25987,5.25 -2.04739,6.45996 -6.57721,14.76369 -9.87388,18.10007 -2.27634,2.30377 -5.97055,4.03999 -14.38168,6.75917 -14.23176,4.6009 -15.92766,5.71191 -15.18845,9.95013 0.50708,2.90733 10.77399,23.51313 12.30219,24.69063 1.59988,1.23273 6.20237,12.01144 7.25705,16.9955 1.32008,6.23827 0.49363,33.97037 -1.58704,53.2545 -0.34122,3.1625 -0.33777,5.75 0.008,5.75 0.34544,0 2.34816,-1.6875 4.45048,-3.75 2.10232,-2.0625 6.62105,-6.225 10.04161,-9.25 3.42056,-3.025 6.95677,-6.17908 7.85825,-7.00907 3.0199,-2.78073 9.2119,-5.99093 11.55529,-5.99093 1.27621,0 2.88771,0.68358 3.5811,1.51907 1.80729,2.17765 1.55617,13.05297 -0.54311,23.52096 -0.27133,1.35298 -0.70641,3.58497 -0.96685,4.95997 -0.26043,1.375 -0.89938,3.9625 -1.41988,5.75 -0.5205,1.7875 -0.73695,3.25 -0.48099,3.25 0.25596,0 0.0441,0.7875 -0.47073,1.75 -0.51486,0.9625 -1.22316,3.325 -1.57399,5.25 -0.35084,1.925 -0.76962,3.95 -0.93063,4.5 -1.38364,4.7264 -2.61673,9.41762 -3.0228,11.5 -0.26813,1.375 -1.38591,5.65413 -2.48395,9.50919 -1.09804,3.85505 -2.22682,8.13005 -2.5084,9.5 -0.62086,3.02062 -1.05964,4.74597 -3.17662,12.49081 -0.90202,3.3 -1.84585,6.9 -2.09741,8 -0.25156,1.1 -0.59873,2.45 -0.77148,3 -0.17276,0.55 -0.6647,2.52248 -1.0932,4.38328 -0.46485,2.01865 -1.52461,3.57824 -2.62744,3.86663 -1.01659,0.26584 -1.84834,1.13447 -1.84834,1.93029 0,1.24562 -5.39129,1.38276 -38.75,0.98566 -50.00481,-0.59525 -52.09113,-0.89486 -53.44879,-7.67574 -0.38434,-1.91956 -2.07663,-9.34012 -3.76065,-16.49012 -1.68403,-7.15 -3.27907,-13.94742 -3.54454,-15.10537 -3.73314,-16.28339 -11.06448,-23.55875 -24.2085,-24.02366 -10.097176,-0.35715 -13.815188,1.7047 -18.500567,10.25961 -1.67856,3.06484 -2.180325,5.94874 -2.413117,13.86942 -0.161647,5.5 0.177079,12.025 0.752725,14.5 0.575645,2.475 1.255081,5.625 1.509857,7 1.169227,6.31021 7.683379,17.03042 11.632992,19.14418 6.63414,3.55049 13.247778,1.5734 19.737545,-5.90035 3.623545,-4.17295 8.190845,-13.56563 7.767585,-15.9741 -0.151,-0.85923 0.23252,-1.74045 0.85225,-1.95825 4.15551,-1.46044 0.30647,12.42612 -6.090935,21.9749 C 91.393746,384.4689 85.288741,389.20194 80,390.33091 c -1.375,0.29352 -4.230165,-0.0725 -6.344811,-0.81338 z M 138.68578,244.59054 c 1.54206,-1.42988 3.21503,-4.87062 4.33892,-8.9237 2.04871,-7.38829 4.47466,-10.47254 10.79076,-13.71893 4.57645,-2.35223 6.64188,-4.79017 7.69691,-9.0851 1.08521,-4.41777 -2.20523,-5.85902 -12.43463,-5.44652 -21.1803,0.85408 -27.41277,6.01745 -26.57638,22.01752 0.82048,15.69583 8.17508,22.58342 16.18442,15.15673 z m 152.27913,142.27913 c -0.6117,-2.27167 -1.50133,-6.43417 -1.97695,-9.25 -1.09194,-6.46462 -3.57165,-19.03992 -5.54488,-28.11967 -0.83669,-3.85 -1.9055,-9.25 -2.37512,-12 -0.46963,-2.75 -3.10682,-16.25 -5.86044,-30 -2.75361,-13.75 -5.21438,-26.2375 -5.46837,-27.75 -0.45994,-2.73889 -0.43821,-2.75 5.38047,-2.75 6.66779,0 6.32218,-0.53624 7.41174,11.5 0.34851,3.85 1.2031,7.9 1.89908,9 0.69598,1.1 1.51852,5.74501 1.82788,10.32224 0.37529,5.55285 1.09144,8.90676 2.15207,10.07874 1.12491,1.24301 1.59603,3.77984 1.61157,8.67776 0.015,4.72085 0.65082,8.30714 2,11.28046 1.22948,2.70953 1.97804,6.51617 1.97804,10.05887 0,6.79711 1.86556,10.26832 4.39179,8.17174 1.34469,-1.11599 1.61319,-1.10981 1.63862,0.0378 0.0237,1.07001 0.2196,1.04191 0.88897,-0.12756 0.88613,-1.54814 1.55925,-4.73341 4.96609,-23.5 4.16869,-22.96322 6.25345,-34.22745 7.58819,-41 0.75876,-3.85 1.65798,-8.6875 1.99827,-10.75 l 0.6187,-3.75 h 6.02207 c 5.78283,0 5.99467,0.0894 5.3323,2.25 -0.37938,1.2375 -1.16057,2.83752 -1.73598,3.5556 -0.57541,0.71809 -1.2482,4.99309 -1.49508,9.5 -0.28647,5.22965 -0.9815,8.80142 -1.92102,9.87216 -0.91576,1.04367 -1.6872,4.8155 -2.04119,9.98009 -0.31298,4.56628 -1.1244,8.85767 -1.80314,9.53642 -0.67875,0.67875 -1.55722,4.9627 -1.95216,9.51991 -0.39494,4.5572 -1.22344,8.90873 -1.84111,9.67007 -0.61767,0.76133 -1.41988,5.03633 -1.7827,9.5 -0.36281,4.46366 -1.3798,9.46575 -2.25998,11.11575 -0.92018,1.725 -1.60294,5.39734 -1.60648,8.6408 -0.004,3.47223 -0.7666,7.31666 -1.9842,10 -1.08792,2.39756 -1.98792,5.8217 -2,7.6092 L 305,391 h -6.46146 -6.46145 z m 52.64208,2.54854 C 343.27314,388.54823 343,362.89823 343,332.41821 V 277 h 20.5 20.5 v 9.4041 9.40411 l -14.03736,0.34589 c -11.11796,0.27396 -14.23437,0.65786 -14.98468,1.8459 -1.21546,1.92454 -1.23822,17.04017 -0.0285,18.95238 0.6986,1.10432 3.93016,1.55264 13.48469,1.87072 l 12.5659,0.41834 V 328.62072 338 h -11.92857 c -9.51082,0 -12.24708,0.31851 -13.5,1.57143 -1.27159,1.27159 -1.57143,4.1181 -1.57143,14.91821 0,7.34073 0.27314,14.05859 0.60699,14.92857 0.51459,1.341 2.79795,1.58179 15,1.58179 H 384 v 10 10 h -19.89301 c -17.21733,0 -19.97465,-0.21276 -20.5,-1.58179 z M 417,344.62244 c 0,-39.74062 -0.21195,-46.55345 -1.48104,-47.6067 -0.98295,-0.81578 -4.09377,-1.10919 -9.25,-0.87245 L 398.5,296.5 398.21379,286.75 397.92758,277 h 25.57373 25.57374 l -0.28752,9.25 -0.28753,9.25 -7,0.25433 c -3.85,0.13989 -8.0125,0.48596 -9.25,0.76905 L 430,297.0381 V 344.01905 391 H 423.5 417 Z M 596,333 v -58 h 8 c 9.24501,0 11.42727,1.33516 12.57585,7.69422 0.37807,2.09318 1.17817,4.70578 1.77801,5.80578 0.59983,1.1 1.62474,3.8 2.27758,6 1.63953,5.52509 8.24148,24.55987 9.36457,27 0.50629,1.1 1.40158,3.89367 1.98953,6.20815 0.73464,2.8919 1.49666,4.04404 2.43623,3.68349 0.91379,-0.35065 1.87351,0.90693 2.89378,3.79186 1.42898,4.04059 1.5316,2.2551 1.6055,-27.9335 L 639,275 h 5.37756 c 3.31903,0 5.81043,0.52159 6.50838,1.36257 0.81849,0.98622 1.05947,16.93704 0.87245,57.75 L 651.5,390.5 l -6.5,0.28462 -6.5,0.28463 -4.82648,-14.28463 C 631.01895,368.92808 624.95397,351.025 620.19578,337 l -8.65126,-25.5 -0.91233,4.5 c -0.50179,2.475 -1.09072,20.3625 -1.30873,39.75 L 608.92706,391 H 602.46353 596 Z M 261,248.17926 c 0,-4.21755 5.84732,-30.04568 7.80314,-34.46713 2.44619,-5.53001 5.0773,-7.29748 11.9841,-8.05037 6.63311,-0.72306 22.55367,-6.12966 40.71276,-13.82599 20.48376,-8.6816 71.03457,-34.01529 93.5,-46.85781 33.93754,-19.40064 59.7326,-31.53488 84.56167,-39.7786 25.34352,-8.414535 44.71058,-12.028406 68.93833,-12.863818 43.07679,-1.485359 81.97087,11.259868 118.60788,38.866688 11.12945,8.38629 13.24876,12.2899 13.72997,25.28958 0.54298,14.66806 -2.11592,22.41629 -7.19322,20.96164 -1.17955,-0.33794 -5.29463,-2.75368 -9.14463,-5.36831 -18.6971,-12.69765 -50.03604,-28.05754 -68.56033,-33.60288 -19.39829,-5.80698 -59.56646,-6.73159 -86.84318,-1.999 -30.12848,5.22738 -63.08914,19.10521 -127.06431,53.49944 C 338.5813,224.09507 284.9263,247.78412 266.82954,249.67561 261.37626,250.24559 261,250.14901 261,248.17926 Z M 246.41068,171.69189 C 243.14453,167.97978 241,164.5358 241,163.00267 c 0,-0.56346 -0.8596,-2.93206 -1.91023,-5.26357 -1.05062,-2.3315 -2.93959,-7.3891 -4.19771,-11.2391 -4.66804,-14.28477 -4.6827,-14.17428 2.55238,-19.23921 3.33056,-2.33157 6.66113,-4.24407 7.40127,-4.25 0.74014,-0.006 2.54014,-0.62319 4,-1.37168 10.46272,-5.36437 16.47305,-7.85117 19.29769,-7.98452 3.02228,-0.14267 3.26867,0.0767 3.19549,2.84541 -0.10968,4.14926 -2.65182,16.56908 -6.24289,30.5 -4.99293,19.36925 -9.30191,27.86451 -14.18532,27.96673 -0.87413,0.0183 -2.89913,-1.45538 -4.5,-3.27484 z M 279,165.69749 c 0,-3.23803 7.19441,-30.15824 9.01183,-33.72068 3.02317,-5.9259 7.75034,-8.38662 26.48817,-13.78836 9.35,-2.69542 23.075,-7.28989 30.5,-10.20993 16.83645,-6.6213 53.30871,-25.057395 88,-44.482474 36.11001,-20.219481 58.37673,-30.766564 86.65446,-41.045649 15.04025,-5.467197 66.64143,-20.4329835 70.48737,-20.4433062 3.5513,-0.00953 52.1035,15.6305372 68.35817,22.0201442 27.54962,10.82958 47.22548,22.198161 56.72462,32.775112 4.76114,5.301357 5.15089,7.06513 4.54166,20.552951 C 719.26581,88.435415 717.32286,96 714.97741,96 714.35886,96 706.79839,91.878825 698.17638,86.841833 639.24775,52.41563 644.34116,54.164211 600.5,53.309332 568.15051,52.678534 543.43423,53.949713 529.92438,56.939096 511.64677,60.983463 486.264,72.529516 439.5,98.071107 352.21612,145.74388 332.49962,154.75475 294.31878,164.42212 282.94422,167.30215 279,167.63053 279,165.69749 Z"
       id="path11493"
       inkscape:connector-curvature="0" />
    <path
       style="fill:#951f24"
       d="m 682,391.06487 c -4.73051,-1.44417 -10.93493,-5.07477 -11.96656,-7.00239 -1.27116,-2.37517 -1.34138,-15.02744 -0.0943,-16.99818 0.78944,-1.2476 1.14773,-1.2476 2.73468,0 1.00442,0.78964 2.18608,1.9982 2.62591,2.6857 0.43983,0.6875 1.35232,1.25 2.02776,1.25 0.67544,0 1.99867,0.9 2.94052,2 1.46116,1.70651 2.94994,2 10.14532,2 7.99837,0 8.58435,-0.15149 11.37302,-2.94015 2.14921,-2.14921 3.11928,-4.29053 3.60604,-7.95989 1.36552,-10.29381 -1.4679,-14.18133 -13.98556,-19.18853 -9.5822,-3.83298 -15.00248,-8.19278 -18.53846,-14.91143 -2.2075,-4.19441 -2.36833,-5.5964 -2.36833,-20.64532 0,-13.50621 0.26672,-16.44848 1.63172,-18 0.89745,-1.02007 1.91137,-2.77611 2.25316,-3.90231 1.05138,-3.46428 8.03593,-10.16625 11.35452,-10.89513 1.71732,-0.37719 3.6586,-1.33187 4.31395,-2.12152 1.53006,-1.84361 7.90343,-1.85472 10.52521,-0.0183 1.11297,0.77955 3.8006,1.73515 5.97251,2.12355 2.17191,0.3884 4.96143,1.62902 6.19893,2.75694 1.93753,1.76596 2.25,3.05678 2.25,9.29467 0,10.64732 -0.28828,10.99909 -5.84923,7.13724 -4.25566,-2.95538 -5.30301,-3.22977 -12.32809,-3.22977 -8.77034,0 -13.07995,2.16407 -13.6391,6.8489 -0.17403,1.4581 -0.68839,2.6511 -1.14301,2.6511 -1.7161,0 -2.01237,3.35017 -0.55467,6.27218 0.83275,1.6693 1.5141,3.56252 1.5141,4.20714 0,1.57746 3.98577,5.13517 6.65969,5.94447 1.18784,0.35951 2.70544,1.31124 3.37245,2.11494 0.66701,0.8037 2.4379,1.46127 3.93532,1.46127 1.49741,0 3.53705,0.9 4.53254,2 0.99549,1.1 2.3239,2 2.95204,2 1.62305,0 8.20528,7.08202 8.978,9.65969 0.35607,1.18784 1.30499,2.70544 2.10869,3.37245 2.10861,1.74999 2.16003,33.48574 0.0556,34.2933 -0.77314,0.29668 -1.72533,1.99466 -2.11599,3.7733 -0.39065,1.77863 -1.55808,4.14389 -2.59429,5.25613 -1.03621,1.11224 -1.88402,2.58208 -1.88402,3.2663 0,0.68423 -0.9,1.5297 -2,1.87883 -1.1,0.34913 -2,1.01043 -2,1.46956 0,2.54421 -16.58154,4.0548 -23,2.09531 z m -391.03509,-4.1952 c -0.6117,-2.27167 -1.50133,-6.43417 -1.97695,-9.25 -1.09194,-6.46462 -3.57165,-19.03992 -5.54488,-28.11967 -0.83669,-3.85 -1.9055,-9.25 -2.37512,-12 -0.46963,-2.75 -3.10682,-16.25 -5.86044,-30 -2.75361,-13.75 -5.21438,-26.2375 -5.46837,-27.75 -0.45994,-2.73889 -0.43821,-2.75 5.38047,-2.75 6.66779,0 6.32218,-0.53624 7.41174,11.5 0.34851,3.85 1.2031,7.9 1.89908,9 0.69598,1.1 1.51852,5.74501 1.82788,10.32224 0.37529,5.55285 1.09144,8.90676 2.15207,10.07874 1.12491,1.24301 1.59603,3.77984 1.61157,8.67776 0.015,4.72085 0.65082,8.30714 2,11.28046 1.22948,2.70953 1.97804,6.51617 1.97804,10.05887 0,6.79711 1.86556,10.26832 4.39179,8.17174 1.34469,-1.11599 1.61319,-1.10981 1.63862,0.0378 0.0237,1.07001 0.2196,1.04191 0.88897,-0.12756 0.88613,-1.54814 1.55925,-4.73341 4.96609,-23.5 4.16869,-22.96322 6.25345,-34.22745 7.58819,-41 0.75876,-3.85 1.65798,-8.6875 1.99827,-10.75 l 0.6187,-3.75 h 6.02207 c 5.78283,0 5.99467,0.0894 5.3323,2.25 -0.37938,1.2375 -1.16057,2.83752 -1.73598,3.5556 -0.57541,0.71809 -1.2482,4.99309 -1.49508,9.5 -0.28647,5.22965 -0.9815,8.80142 -1.92102,9.87216 -0.91576,1.04367 -1.6872,4.8155 -2.04119,9.98009 -0.31298,4.56628 -1.1244,8.85767 -1.80314,9.53642 -0.67875,0.67875 -1.55722,4.9627 -1.95216,9.51991 -0.39494,4.5572 -1.22344,8.90873 -1.84111,9.67007 -0.61767,0.76133 -1.41988,5.03633 -1.7827,9.5 -0.36281,4.46366 -1.3798,9.46575 -2.25998,11.11575 -0.92018,1.725 -1.60294,5.39734 -1.60648,8.6408 -0.004,3.47223 -0.7666,7.31666 -1.9842,10 -1.08792,2.39756 -1.98792,5.8217 -2,7.6092 L 305,391 h -6.46146 -6.46145 z m 52.64208,2.54854 C 343.27314,388.54823 343,362.89823 343,332.41821 V 277 h 20.5 20.5 v 9.4041 9.40411 l -14.03736,0.34589 c -11.11796,0.27396 -14.23437,0.65786 -14.98468,1.8459 -1.21546,1.92454 -1.23822,17.04017 -0.0285,18.95238 0.6986,1.10432 3.93016,1.55264 13.48469,1.87072 l 12.5659,0.41834 V 328.62072 338 h -11.92857 c -9.51082,0 -12.24708,0.31851 -13.5,1.57143 -1.27159,1.27159 -1.57143,4.1181 -1.57143,14.91821 0,7.34073 0.27314,14.05859 0.60699,14.92857 0.51459,1.341 2.79795,1.58179 15,1.58179 H 384 v 10 10 h -19.89301 c -17.21733,0 -19.97465,-0.21276 -20.5,-1.58179 z M 417,344.62244 c 0,-39.74062 -0.21195,-46.55345 -1.48104,-47.6067 -0.98295,-0.81578 -4.09377,-1.10919 -9.25,-0.87245 L 398.5,296.5 398.21379,286.75 397.92758,277 h 25.57373 25.57374 l -0.28752,9.25 -0.28753,9.25 -7,0.25433 c -3.85,0.13989 -8.0125,0.48596 -9.25,0.76905 L 430,297.0381 V 344.01905 391 H 423.5 417 Z M 460.57087,381.75 c -0.33868,-5.0875 -0.71817,-30.73772 -0.84332,-57.00048 L 459.5,276.99904 l 14.93428,4.8e-4 c 13.286,4.3e-4 15.42967,0.2403 19.42291,2.17339 4.86604,2.35561 7.43123,4.53035 8.43782,7.15348 0.35322,0.92049 1.05525,1.67361 1.56006,1.67361 0.50481,0 1.22078,2.1375 1.59105,4.75 0.37026,2.6125 1.39143,7.3759 2.26926,10.58534 1.45567,5.32207 1.45745,6.28962 0.0202,11 -0.86671,2.84056 -1.89125,7.63966 -2.27675,10.66466 -0.38549,3.025 -1.11746,5.76455 -1.62659,6.08789 -0.9659,0.61343 -3.60804,5.09343 -6.30158,10.68495 -1.1541,2.39578 -1.30246,3.78505 -0.55363,5.18426 0.56263,1.05128 1.02296,2.65752 1.02296,3.56943 0,0.91191 0.9,2.80218 2,4.2006 1.1,1.39842 2,3.5518 2,4.78528 0,1.23349 0.62793,2.76383 1.39539,3.40077 0.76747,0.63694 1.67938,2.67183 2.02647,4.52197 0.34708,1.85013 1.29416,3.9142 2.1046,4.58681 0.81045,0.67261 1.47354,2.23214 1.47354,3.46563 0,1.23348 0.9,3.38686 2,4.78528 1.1,1.39842 2,3.67697 2,5.06343 0,1.38646 0.70714,3.22799 1.57143,4.09227 C 516,390.85714 515.46067,391 508.63882,391 c -6.91214,0 -7.55813,-0.17747 -8.18971,-2.25 -0.37712,-1.2375 -1.25045,-2.925 -1.94073,-3.75 -0.69028,-0.825 -1.54929,-3.14405 -1.90892,-5.15345 -0.35962,-2.0094 -1.31662,-3.90777 -2.12666,-4.21861 -0.82801,-0.31774 -1.4728,-1.83327 -1.4728,-3.4617 0,-1.59309 -0.9,-4.04069 -2,-5.43911 -1.1,-1.39842 -2,-3.65401 -2,-5.01241 0,-1.35841 -0.63085,-2.99339 -1.40189,-3.63329 -0.77103,-0.63991 -1.70609,-2.38251 -2.07791,-3.87245 -1.13962,-4.56674 -3.32052,-6.22423 -7.40139,-5.62511 C 471.38223,349.57289 471,350.83611 471,372.11078 V 391 h -4.90668 -4.90667 z m 29.97688,-54.39602 C 491.89649,325.89866 493,324.03577 493,323.21422 c 0,-0.82155 0.71624,-2.01747 1.59165,-2.65758 2.61229,-1.91015 2.34825,-12.02944 -0.46485,-17.81538 C 490.96186,296.23165 488.87226,295 480.9931,295 471.74811,295 471,296.40988 471,313.83286 471,329.77424 471.14131,330 481.11918,330 c 6.25956,0 7.22827,-0.27186 9.42857,-2.64602 z M 523.03393,385.25 c 0.0211,-3.57414 0.76507,-7.26364 1.96607,-9.75 1.27588,-2.64139 1.94366,-6.18099 1.96607,-10.42126 0.0232,-4.39298 0.52985,-6.96924 1.60394,-8.1561 1.00679,-1.11249 1.7795,-4.54877 2.15396,-9.57874 0.32117,-4.31415 1.1636,-8.7439 1.87207,-9.8439 0.70846,-1.1 1.60776,-5.6 1.99842,-10 0.39067,-4.4 1.26744,-8.9 1.94838,-10 0.68095,-1.1 1.46035,-5.15 1.73202,-9 0.27166,-3.85 1.21818,-8.35 2.10337,-10 0.93852,-1.74939 1.61202,-5.38286 1.61561,-8.71607 0.004,-3.30928 0.72397,-7.22134 1.71093,-9.29103 l 1.70478,-3.57494 6.50762,0.29102 c 6.49872,0.29062 6.50854,0.29559 7.18787,3.63367 0.37414,1.83846 1.17857,3.84096 1.78761,4.45 0.60904,0.60904 1.11723,3.82985 1.12931,7.15735 0.014,3.85061 0.74105,7.63472 2,10.4092 1.19866,2.64161 1.99141,6.58178 2.01197,10 0.0208,3.46572 0.77896,7.18319 1.96607,9.6408 1.234,2.55469 1.9444,6.1779 1.96607,10.02749 0.0191,3.39527 0.62805,6.8889 1.3944,8 0.74826,1.08488 1.67981,5.34751 2.07012,9.47251 0.39031,4.125 1.28672,8.4 1.99203,9.5 0.7053,1.1 1.51264,5.24823 1.79408,9.21829 0.29799,4.20336 1.19496,8.26103 2.14751,9.71481 0.96726,1.47623 1.63579,4.55436 1.63579,7.53172 V 391 h -5.8564 -5.8564 l -0.66142,-7.11657 c -0.36378,-3.91412 -1.40153,-9.37934 -2.30611,-12.14494 l -1.64469,-5.02837 -12.01467,0.64603 c -15.59307,0.83843 -16.22321,1.24163 -16.92253,10.82797 -0.29352,4.02373 -1.1421,8.54987 -1.88573,10.05808 -1.18967,2.41286 -1.92252,2.74313 -6.10205,2.75 L 523,391 l 0.0339,-5.75 z m 36.97926,-37.76589 c 1.55608,-1.87496 0.79982,-13.79957 -1.01376,-15.9848 -0.67612,-0.81467 -1.58203,-5.1978 -2.01313,-9.74027 -0.76065,-8.01502 -3.94625,-19.3792 -4.75349,-16.95746 C 552.0131,305.46071 551.1847,306 550.39192,306 548.30266,306 547,310.26305 547,317.10028 c 0,3.71834 -0.58693,6.86586 -1.55614,8.34506 -2.23317,3.40824 -3.50492,20.35074 -1.66565,22.19001 1.97827,1.97828 14.56495,1.86102 16.23498,-0.15124 z M 597.50717,389.75 c -0.23653,-0.6875 -0.55991,-26.33765 -0.71861,-57.00034 L 596.5,276.99932 l 7.15217,3.4e-4 c 7.04768,3.4e-4 7.16746,0.0442 8.19799,3.00034 0.57519,1.65 1.51921,3 2.09782,3 0.57861,0 1.05202,1.73931 1.05202,3.86514 0,2.35095 0.78351,4.86122 2,6.40773 1.1,1.39842 2,3.71074 2,5.13848 0,1.42775 0.9,4.2751 2,6.32747 1.1,2.05236 2,4.92063 2,6.37393 0,1.4533 0.62608,3.16196 1.39129,3.79703 0.76521,0.63506 1.69671,3.19138 2.07001,5.68069 0.37329,2.48932 1.32221,4.77296 2.10871,5.07477 0.90241,0.34629 1.42999,1.99044 1.42999,4.45643 0,3.0376 0.74507,4.72071 3.34619,7.55903 2.27055,2.4776 3.87781,3.44732 5,3.0167 C 639.83622,340.12562 640,336.94013 640,308.53138 V 277 h 4.5 4.5 v 56.5 56.5 h -5.29616 -5.29615 l -1.49262,-4.75 c -7.25007,-23.07205 -25.41854,-75.38131 -25.70226,-74 -0.1977,0.9625 -0.75531,1.75 -1.23913,1.75 -2.31348,0 -2.96282,9.35247 -2.9681,42.75 L 607,391 h -4.53138 c -2.72908,0 -4.70244,-0.49717 -4.96145,-1.25 z M 132.5,377.95992 c -14.98,-1.11375 -16.79424,-2.17173 -17.87178,-10.42196 -0.95014,-7.27469 -8.01388,-27.51314 -13.72518,-39.32422 -6.214753,-12.85224 -8.04066,-14.20465 -19.185159,-14.21 -8.992242,-0.004 -12.892744,1.35082 -17.553327,6.09849 -7.642742,7.78555 -16.61959,26.8 -17.724998,37.54447 -0.805587,7.83025 -2.260814,11.33484 -5.16512,12.43906 -2.606534,0.991 -4.149192,0.75195 -14.665505,-2.27258 l -6.89107,-1.98189 0.684551,-13.66565 c 2.260497,-45.12619 4.934571,-74.98283 7.088867,-79.14878 1.59125,-3.07713 11.45394,-10.01225 21.008721,-14.77263 6.959011,-3.46711 25.30235,-10.38342 34,-12.81961 8.366945,-2.34356 14.75149,-5.75074 18.03667,-9.62546 3.81099,-4.49488 9.83728,-17.57988 12.76189,-27.71011 1.64693,-5.70462 3.17577,-8.96858 4.8081,-10.26495 6.47408,-5.1416 26.90822,-13.85675 35.89334,-15.30849 7.57124,-1.2233 10.29387,-3.45312 24.73982,-20.26172 7.04174,-8.19343 20.13718,-18.55269 29.04225,-22.97413 9.87525,-4.90314 10.63945,-4.07244 6.76133,7.34972 -5.78675,17.04362 -11.31504,22.87489 -26.29492,27.73607 -11.08921,3.59861 -15.25376,5.48465 -15.9149,7.20753 -0.91934,2.39578 3.15223,11.85949 11.23028,26.10295 4.10997,7.24682 8.13945,15.0659 8.9544,17.37573 2.00888,5.69375 1.86265,16.11844 -0.51826,36.94824 -2.37503,20.77831 -2.53536,27 -0.69578,27 1.87728,0 8.64875,-4.46387 20.92843,-13.7964 10.4419,-7.93582 14.54111,-10.07949 16.71051,-8.73873 1.82636,1.12876 1.156,11.3522 -1.52951,23.32604 -2.6846,11.96975 -21.67923,81.62579 -23.57669,86.45909 l -1.0796,2.75 -30.12868,-0.14829 C 156.05791,378.77015 138,378.36885 132.5,377.95992 Z m 5.38116,-131.06834 c 3.73443,-1.30183 5.82626,-4.87706 7.7975,-13.32702 1.59404,-6.83303 3.56642,-9.57474 6.36211,-8.84365 6.04598,1.58106 9.95923,-3.17577 9.95923,-12.10615 0,-10.6192 -1.98761,-12.27264 -14.32807,-11.9192 -13.80624,0.39543 -23.92738,6.53602 -27.24723,16.53114 -2.31213,6.96119 -1.56157,21.76489 1.29918,25.62438 3.24676,4.38025 10.19691,6.1183 16.15728,4.0405 z M 59.872184,375.25 c -1.731393,-4.41553 -3.281122,-14.74194 -2.512849,-16.74403 1.128397,-2.94056 2.522301,-0.56242 4.136432,7.05716 C 63.229469,373.74715 63.393431,378 61.975249,378 c -0.563613,0 -1.509992,-1.2375 -2.103065,-2.75 z M 261,248.17926 c 0,-4.21755 5.84732,-30.04568 7.80314,-34.46713 2.44619,-5.53001 5.0773,-7.29748 11.9841,-8.05037 6.63311,-0.72306 22.55367,-6.12966 40.71276,-13.82599 20.48376,-8.6816 71.03457,-34.01529 93.5,-46.85781 33.93754,-19.40064 59.7326,-31.53488 84.56167,-39.7786 25.34352,-8.414535 44.71058,-12.028406 68.93833,-12.863818 43.07679,-1.485359 81.97087,11.259868 118.60788,38.866688 11.12945,8.38629 13.24876,12.2899 13.72997,25.28958 0.54298,14.66806 -2.11592,22.41629 -7.19322,20.96164 -1.17955,-0.33794 -5.29463,-2.75368 -9.14463,-5.36831 -18.6971,-12.69765 -50.03604,-28.05754 -68.56033,-33.60288 -19.39829,-5.80698 -59.56646,-6.73159 -86.84318,-1.999 -30.12848,5.22738 -63.08914,19.10521 -127.06431,53.49944 C 338.5813,224.09507 284.9263,247.78412 266.82954,249.67561 261.37626,250.24559 261,250.14901 261,248.17926 Z M 245.80125,168.25 c -1.41511,-1.5125 -3.2513,-4.1 -4.08043,-5.75 C 240.10941,159.29323 232,134.15148 232,132.36237 c 0,-0.58819 5.0625,-2.69536 11.25,-4.68262 6.1875,-1.98725 14.9625,-5.41197 19.5,-7.61049 4.5375,-2.19852 8.25,-3.56019 8.25,-3.02593 0,1.9332 -6.13972,28.62575 -8.15561,35.45667 -3.43572,11.64205 -8.01178,18.5 -12.34439,18.5 -1.1692,0 -3.28364,-1.2375 -4.69875,-2.75 z M 279,165.69749 c 0,-3.23803 7.19441,-30.15824 9.01183,-33.72068 3.02317,-5.9259 7.75034,-8.38662 26.48817,-13.78836 9.35,-2.69542 23.075,-7.28989 30.5,-10.20993 16.83645,-6.6213 53.30871,-25.057395 88,-44.482474 36.11001,-20.219481 58.37673,-30.766564 86.65446,-41.045649 15.04025,-5.467197 66.64143,-20.4329835 70.48737,-20.4433062 3.5513,-0.00953 52.1035,15.6305372 68.35817,22.0201442 27.54962,10.82958 47.22548,22.198161 56.72462,32.775112 4.76114,5.301357 5.15089,7.06513 4.54166,20.552951 C 719.26581,88.435415 717.32286,96 714.97741,96 714.35886,96 706.79839,91.878825 698.17638,86.841833 639.24775,52.41563 644.34116,54.164211 600.5,53.309332 568.15051,52.678534 543.43423,53.949713 529.92438,56.939096 511.64677,60.983463 486.264,72.529516 439.5,98.071107 352.21612,145.74388 332.49962,154.75475 294.31878,164.42212 282.94422,167.30215 279,167.63053 279,165.69749 Z"
       id="path11491"
       inkscape:connector-curvature="0" />
    <path
       style="fill:#2c3074"
       d="m 682,391.06487 c -4.73051,-1.44417 -10.93493,-5.07477 -11.96656,-7.00239 -1.27116,-2.37517 -1.34138,-15.02744 -0.0943,-16.99818 0.78944,-1.2476 1.14773,-1.2476 2.73468,0 1.00442,0.78964 2.18608,1.9982 2.62591,2.6857 0.43983,0.6875 1.35232,1.25 2.02776,1.25 0.67544,0 1.99867,0.9 2.94052,2 1.46116,1.70651 2.94994,2 10.14532,2 7.99837,0 8.58435,-0.15149 11.37302,-2.94015 2.14921,-2.14921 3.11928,-4.29053 3.60604,-7.95989 1.36552,-10.29381 -1.4679,-14.18133 -13.98556,-19.18853 -9.5822,-3.83298 -15.00248,-8.19278 -18.53846,-14.91143 -2.2075,-4.19441 -2.36833,-5.5964 -2.36833,-20.64532 0,-13.50621 0.26672,-16.44848 1.63172,-18 0.89745,-1.02007 1.91137,-2.77611 2.25316,-3.90231 1.05138,-3.46428 8.03593,-10.16625 11.35452,-10.89513 1.71732,-0.37719 3.6586,-1.33187 4.31395,-2.12152 1.53006,-1.84361 7.90343,-1.85472 10.52521,-0.0183 1.11297,0.77955 3.8006,1.73515 5.97251,2.12355 2.17191,0.3884 4.96143,1.62902 6.19893,2.75694 1.93753,1.76596 2.25,3.05678 2.25,9.29467 0,10.64732 -0.28828,10.99909 -5.84923,7.13724 -4.25566,-2.95538 -5.30301,-3.22977 -12.32809,-3.22977 -8.77034,0 -13.07995,2.16407 -13.6391,6.8489 -0.17403,1.4581 -0.68839,2.6511 -1.14301,2.6511 -1.7161,0 -2.01237,3.35017 -0.55467,6.27218 0.83275,1.6693 1.5141,3.56252 1.5141,4.20714 0,1.57746 3.98577,5.13517 6.65969,5.94447 1.18784,0.35951 2.70544,1.31124 3.37245,2.11494 0.66701,0.8037 2.4379,1.46127 3.93532,1.46127 1.49741,0 3.53705,0.9 4.53254,2 0.99549,1.1 2.3239,2 2.95204,2 1.62305,0 8.20528,7.08202 8.978,9.65969 0.35607,1.18784 1.30499,2.70544 2.10869,3.37245 2.10861,1.74999 2.16003,33.48574 0.0556,34.2933 -0.77314,0.29668 -1.72533,1.99466 -2.11599,3.7733 -0.39065,1.77863 -1.55808,4.14389 -2.59429,5.25613 -1.03621,1.11224 -1.88402,2.58208 -1.88402,3.2663 0,0.68423 -0.9,1.5297 -2,1.87883 -1.1,0.34913 -2,1.01043 -2,1.46956 0,2.54421 -16.58154,4.0548 -23,2.09531 z M 460.57087,381.75 c -0.33868,-5.0875 -0.71817,-30.73772 -0.84332,-57.00048 L 459.5,276.99904 l 14.93428,4.8e-4 c 13.286,4.3e-4 15.42967,0.2403 19.42291,2.17339 4.86604,2.35561 7.43123,4.53035 8.43782,7.15348 0.35322,0.92049 1.05525,1.67361 1.56006,1.67361 0.50481,0 1.22078,2.1375 1.59105,4.75 0.37026,2.6125 1.39143,7.3759 2.26926,10.58534 1.45567,5.32207 1.45745,6.28962 0.0202,11 -0.86671,2.84056 -1.89125,7.63966 -2.27675,10.66466 -0.38549,3.025 -1.11746,5.76455 -1.62659,6.08789 -0.9659,0.61343 -3.60804,5.09343 -6.30158,10.68495 -1.1541,2.39578 -1.30246,3.78505 -0.55363,5.18426 0.56263,1.05128 1.02296,2.65752 1.02296,3.56943 0,0.91191 0.9,2.80218 2,4.2006 1.1,1.39842 2,3.5518 2,4.78528 0,1.23349 0.62793,2.76383 1.39539,3.40077 0.76747,0.63694 1.67938,2.67183 2.02647,4.52197 0.34708,1.85013 1.29416,3.9142 2.1046,4.58681 0.81045,0.67261 1.47354,2.23214 1.47354,3.46563 0,1.23348 0.9,3.38686 2,4.78528 1.1,1.39842 2,3.67697 2,5.06343 0,1.38646 0.70714,3.22799 1.57143,4.09227 C 516,390.85714 515.46067,391 508.63882,391 c -6.91214,0 -7.55813,-0.17747 -8.18971,-2.25 -0.37712,-1.2375 -1.25045,-2.925 -1.94073,-3.75 -0.69028,-0.825 -1.54929,-3.14405 -1.90892,-5.15345 -0.35962,-2.0094 -1.31662,-3.90777 -2.12666,-4.21861 -0.82801,-0.31774 -1.4728,-1.83327 -1.4728,-3.4617 0,-1.59309 -0.9,-4.04069 -2,-5.43911 -1.1,-1.39842 -2,-3.65401 -2,-5.01241 0,-1.35841 -0.63085,-2.99339 -1.40189,-3.63329 -0.77103,-0.63991 -1.70609,-2.38251 -2.07791,-3.87245 -1.13962,-4.56674 -3.32052,-6.22423 -7.40139,-5.62511 C 471.38223,349.57289 471,350.83611 471,372.11078 V 391 h -4.90668 -4.90667 z m 29.97688,-54.39602 C 491.89649,325.89866 493,324.03577 493,323.21422 c 0,-0.82155 0.71624,-2.01747 1.59165,-2.65758 2.61229,-1.91015 2.34825,-12.02944 -0.46485,-17.81538 C 490.96186,296.23165 488.87226,295 480.9931,295 471.74811,295 471,296.40988 471,313.83286 471,329.77424 471.14131,330 481.11918,330 c 6.25956,0 7.22827,-0.27186 9.42857,-2.64602 z M 523.03393,385.25 c 0.0211,-3.57414 0.76507,-7.26364 1.96607,-9.75 1.27588,-2.64139 1.94366,-6.18099 1.96607,-10.42126 0.0232,-4.39298 0.52985,-6.96924 1.60394,-8.1561 1.00679,-1.11249 1.7795,-4.54877 2.15396,-9.57874 0.32117,-4.31415 1.1636,-8.7439 1.87207,-9.8439 0.70846,-1.1 1.60776,-5.6 1.99842,-10 0.39067,-4.4 1.26744,-8.9 1.94838,-10 0.68095,-1.1 1.46035,-5.15 1.73202,-9 0.27166,-3.85 1.21818,-8.35 2.10337,-10 0.93852,-1.74939 1.61202,-5.38286 1.61561,-8.71607 0.004,-3.30928 0.72397,-7.22134 1.71093,-9.29103 l 1.70478,-3.57494 6.50762,0.29102 c 6.49872,0.29062 6.50854,0.29559 7.18787,3.63367 0.37414,1.83846 1.17857,3.84096 1.78761,4.45 0.60904,0.60904 1.11723,3.82985 1.12931,7.15735 0.014,3.85061 0.74105,7.63472 2,10.4092 1.19866,2.64161 1.99141,6.58178 2.01197,10 0.0208,3.46572 0.77896,7.18319 1.96607,9.6408 1.234,2.55469 1.9444,6.1779 1.96607,10.02749 0.0191,3.39527 0.62805,6.8889 1.3944,8 0.74826,1.08488 1.67981,5.34751 2.07012,9.47251 0.39031,4.125 1.28672,8.4 1.99203,9.5 0.7053,1.1 1.51264,5.24823 1.79408,9.21829 0.29799,4.20336 1.19496,8.26103 2.14751,9.71481 0.96726,1.47623 1.63579,4.55436 1.63579,7.53172 V 391 h -5.8564 -5.8564 l -0.66142,-7.11657 c -0.36378,-3.91412 -1.40153,-9.37934 -2.30611,-12.14494 l -1.64469,-5.02837 -12.01467,0.64603 c -15.59307,0.83843 -16.22321,1.24163 -16.92253,10.82797 -0.29352,4.02373 -1.1421,8.54987 -1.88573,10.05808 -1.18967,2.41286 -1.92252,2.74313 -6.10205,2.75 L 523,391 l 0.0339,-5.75 z m 36.97926,-37.76589 c 1.55608,-1.87496 0.79982,-13.79957 -1.01376,-15.9848 -0.67612,-0.81467 -1.58203,-5.1978 -2.01313,-9.74027 -0.76065,-8.01502 -3.94625,-19.3792 -4.75349,-16.95746 C 552.0131,305.46071 551.1847,306 550.39192,306 548.30266,306 547,310.26305 547,317.10028 c 0,3.71834 -0.58693,6.86586 -1.55614,8.34506 -2.23317,3.40824 -3.50492,20.35074 -1.66565,22.19001 1.97827,1.97828 14.56495,1.86102 16.23498,-0.15124 z M 597.50717,389.75 c -0.23653,-0.6875 -0.55991,-26.33765 -0.71861,-57.00034 L 596.5,276.99932 l 7.15217,3.4e-4 c 7.04768,3.4e-4 7.16746,0.0442 8.19799,3.00034 0.57519,1.65 1.51921,3 2.09782,3 0.57861,0 1.05202,1.73931 1.05202,3.86514 0,2.35095 0.78351,4.86122 2,6.40773 1.1,1.39842 2,3.71074 2,5.13848 0,1.42775 0.9,4.2751 2,6.32747 1.1,2.05236 2,4.92063 2,6.37393 0,1.4533 0.62608,3.16196 1.39129,3.79703 0.76521,0.63506 1.69671,3.19138 2.07001,5.68069 0.37329,2.48932 1.32221,4.77296 2.10871,5.07477 0.90241,0.34629 1.42999,1.99044 1.42999,4.45643 0,3.0376 0.74507,4.72071 3.34619,7.55903 2.27055,2.4776 3.87781,3.44732 5,3.0167 C 639.83622,340.12562 640,336.94013 640,308.53138 V 277 h 4.5 4.5 v 56.5 56.5 h -5.29616 -5.29615 l -1.49262,-4.75 c -7.25007,-23.07205 -25.41854,-75.38131 -25.70226,-74 -0.1977,0.9625 -0.75531,1.75 -1.23913,1.75 -2.31348,0 -2.96282,9.35247 -2.9681,42.75 L 607,391 h -4.53138 c -2.72908,0 -4.70244,-0.49717 -4.96145,-1.25 z M 132.5,377.95992 c -14.98,-1.11375 -16.79424,-2.17173 -17.87178,-10.42196 -0.95014,-7.27469 -8.01388,-27.51314 -13.72518,-39.32422 -6.214753,-12.85224 -8.04066,-14.20465 -19.185159,-14.21 -8.992242,-0.004 -12.892744,1.35082 -17.553327,6.09849 -7.642742,7.78555 -16.61959,26.8 -17.724998,37.54447 -0.805587,7.83025 -2.260814,11.33484 -5.16512,12.43906 -2.606534,0.991 -4.149192,0.75195 -14.665505,-2.27258 l -6.89107,-1.98189 0.684551,-13.66565 c 2.260497,-45.12619 4.934571,-74.98283 7.088867,-79.14878 1.59125,-3.07713 11.45394,-10.01225 21.008721,-14.77263 6.959011,-3.46711 25.30235,-10.38342 34,-12.81961 8.366945,-2.34356 14.75149,-5.75074 18.03667,-9.62546 3.81099,-4.49488 9.83728,-17.57988 12.76189,-27.71011 1.64693,-5.70462 3.17577,-8.96858 4.8081,-10.26495 6.47408,-5.1416 26.90822,-13.85675 35.89334,-15.30849 7.57124,-1.2233 10.29387,-3.45312 24.73982,-20.26172 7.04174,-8.19343 20.13718,-18.55269 29.04225,-22.97413 9.87525,-4.90314 10.63945,-4.07244 6.76133,7.34972 -5.78675,17.04362 -11.31504,22.87489 -26.29492,27.73607 -11.08921,3.59861 -15.25376,5.48465 -15.9149,7.20753 -0.91934,2.39578 3.15223,11.85949 11.23028,26.10295 4.10997,7.24682 8.13945,15.0659 8.9544,17.37573 2.00888,5.69375 1.86265,16.11844 -0.51826,36.94824 -2.37503,20.77831 -2.53536,27 -0.69578,27 1.87728,0 8.64875,-4.46387 20.92843,-13.7964 10.4419,-7.93582 14.54111,-10.07949 16.71051,-8.73873 1.82636,1.12876 1.156,11.3522 -1.52951,23.32604 -2.6846,11.96975 -21.67923,81.62579 -23.57669,86.45909 l -1.0796,2.75 -30.12868,-0.14829 C 156.05791,378.77015 138,378.36885 132.5,377.95992 Z m 5.38116,-131.06834 c 3.73443,-1.30183 5.82626,-4.87706 7.7975,-13.32702 1.59404,-6.83303 3.56642,-9.57474 6.36211,-8.84365 6.04598,1.58106 9.95923,-3.17577 9.95923,-12.10615 0,-10.6192 -1.98761,-12.27264 -14.32807,-11.9192 -13.80624,0.39543 -23.92738,6.53602 -27.24723,16.53114 -2.31213,6.96119 -1.56157,21.76489 1.29918,25.62438 3.24676,4.38025 10.19691,6.1183 16.15728,4.0405 z M 59.872184,375.25 c -1.731393,-4.41553 -3.281122,-14.74194 -2.512849,-16.74403 1.128397,-2.94056 2.522301,-0.56242 4.136432,7.05716 C 63.229469,373.74715 63.393431,378 61.975249,378 c -0.563613,0 -1.509992,-1.2375 -2.103065,-2.75 z m 185.929066,-207 c -1.41511,-1.5125 -3.2513,-4.1 -4.08043,-5.75 C 240.10941,159.29323 232,134.15148 232,132.36237 c 0,-0.58819 5.0625,-2.69536 11.25,-4.68262 6.1875,-1.98725 14.9625,-5.41197 19.5,-7.61049 4.5375,-2.19852 8.25,-3.56019 8.25,-3.02593 0,1.9332 -6.13972,28.62575 -8.15561,35.45667 -3.43572,11.64205 -8.01178,18.5 -12.34439,18.5 -1.1692,0 -3.28364,-1.2375 -4.69875,-2.75 z"
       id="path11489"
       inkscape:connector-curvature="0" />
  </g>
</svg>
